<svg xmlns="http://www.w3.org/2000/svg" viewBox="0 0 120 160" class="plate-detail" role="presentation" focusable="false">
  <g fill="none" stroke="currentColor" stroke-width="1.5" stroke-linecap="round" stroke-linejoin="round">
    <path d="M 49.01 4.44 Q 53.01 29.32 50.01 54.48 A 12 12 0 0 1 73.99 53.52 Q 68.99 28.68 70.99 3.56 A 11 11 0 0 1 49.01 4.44 Z"/>
    <circle cx="62" cy="62" r="11"/>
    <path d="M 49.01 71.56 Q 49.01 103.69 44.02 135.5 A 8 8 0 0 1 59.98 136.5 Q 58.99 104.31 62.99 72.44 A 7 7 0 0 1 49.01 71.56 Z"/>
    <path d="M 64.01 72.37 Q 68.01 104.25 67.01 136.44 A 7 7 0 0 1 80.99 135.56 Q 75.99 103.75 75.99 71.63 A 6 6 0 0 1 64.01 72.37 Z"/>
  </g>
</svg>