<svg xmlns="http://www.w3.org/2000/svg" viewBox="0 0 500 980" class="plate-figure" role="img" aria-label="Anatomical figure with the fifteen body regions marked and numbered">
  <g class="plate-body" fill="none" stroke="currentColor" stroke-width="1.3" stroke-linecap="round" stroke-linejoin="round">
    <ellipse cx="250" cy="72" rx="40" ry="48"/>
    <path d="M 220 96 Q 250 134 280 96"/>
    <line x1="219" y1="104" x2="281" y2="104"/>
    <rect x="240" y="125.65" width="20" height="6.99" rx="2.45"/><line x1="233.2" y1="129.14" x2="240" y2="129.14"/><line x1="260" y1="129.14" x2="266.8" y2="129.14"/><rect x="239.5" y="135.93" width="21" height="6.99" rx="2.45"/><line x1="232.36" y1="139.43" x2="239.5" y2="139.43"/><line x1="260.5" y1="139.43" x2="267.64" y2="139.43"/><rect x="239" y="146.22" width="22" height="6.99" rx="2.45"/><line x1="231.52" y1="149.71" x2="239" y2="149.71"/><line x1="261" y1="149.71" x2="268.48" y2="149.71"/><rect x="238.5" y="156.5" width="23" height="6.99" rx="2.45"/><line x1="230.68" y1="160" x2="238.5" y2="160"/><line x1="261.5" y1="160" x2="269.32" y2="160"/><rect x="238" y="166.79" width="24" height="6.99" rx="2.45"/><line x1="229.84" y1="170.29" x2="238" y2="170.29"/><line x1="262" y1="170.29" x2="270.16" y2="170.29"/><rect x="237.5" y="177.07" width="25" height="6.99" rx="2.45"/><line x1="229" y1="180.57" x2="237.5" y2="180.57"/><line x1="262.5" y1="180.57" x2="271" y2="180.57"/><rect x="237" y="187.36" width="26" height="6.99" rx="2.45"/><line x1="228.16" y1="190.86" x2="237" y2="190.86"/><line x1="263" y1="190.86" x2="271.84" y2="190.86"/>
    <rect x="237" y="198.35" width="26" height="9.97" rx="3.49"/><line x1="228.16" y1="203.33" x2="237" y2="203.33"/><line x1="263" y1="203.33" x2="271.84" y2="203.33"/><rect x="236.55" y="213.01" width="26.91" height="9.97" rx="3.49"/><line x1="227.4" y1="218" x2="236.55" y2="218"/><line x1="263.45" y1="218" x2="272.6" y2="218"/><rect x="236.09" y="227.68" width="27.82" height="9.97" rx="3.49"/><line x1="226.63" y1="232.67" x2="236.09" y2="232.67"/><line x1="263.91" y1="232.67" x2="273.37" y2="232.67"/><rect x="235.64" y="242.35" width="28.73" height="9.97" rx="3.49"/><line x1="225.87" y1="247.33" x2="235.64" y2="247.33"/><line x1="264.36" y1="247.33" x2="274.13" y2="247.33"/><rect x="235.18" y="257.01" width="29.64" height="9.97" rx="3.49"/><line x1="225.11" y1="262" x2="235.18" y2="262"/><line x1="264.82" y1="262" x2="274.89" y2="262"/><rect x="234.73" y="271.68" width="30.55" height="9.97" rx="3.49"/><line x1="224.34" y1="276.67" x2="234.73" y2="276.67"/><line x1="265.27" y1="276.67" x2="275.66" y2="276.67"/><rect x="234.27" y="286.35" width="31.45" height="9.97" rx="3.49"/><line x1="223.58" y1="291.33" x2="234.27" y2="291.33"/><line x1="265.73" y1="291.33" x2="276.42" y2="291.33"/><rect x="233.82" y="301.01" width="32.36" height="9.97" rx="3.49"/><line x1="222.81" y1="306" x2="233.82" y2="306"/><line x1="266.18" y1="306" x2="277.19" y2="306"/><rect x="233.36" y="315.68" width="33.27" height="9.97" rx="3.49"/><line x1="222.05" y1="320.67" x2="233.36" y2="320.67"/><line x1="266.64" y1="320.67" x2="277.95" y2="320.67"/><rect x="232.91" y="330.35" width="34.18" height="9.97" rx="3.49"/><line x1="221.29" y1="335.33" x2="232.91" y2="335.33"/><line x1="267.09" y1="335.33" x2="278.71" y2="335.33"/><rect x="232.45" y="345.01" width="35.09" height="9.97" rx="3.49"/><line x1="220.52" y1="350" x2="232.45" y2="350"/><line x1="267.55" y1="350" x2="279.48" y2="350"/><rect x="232" y="359.68" width="36" height="9.97" rx="3.49"/><line x1="219.76" y1="364.67" x2="232" y2="364.67"/><line x1="268" y1="364.67" x2="280.24" y2="364.67"/>
    <rect x="232" y="375.07" width="36" height="13.06" rx="4.57"/><line x1="219.76" y1="381.6" x2="232" y2="381.6"/><line x1="268" y1="381.6" x2="280.24" y2="381.6"/><rect x="231" y="394.27" width="38" height="13.06" rx="4.57"/><line x1="218.08" y1="400.8" x2="231" y2="400.8"/><line x1="269" y1="400.8" x2="281.92" y2="400.8"/><rect x="230" y="413.47" width="40" height="13.06" rx="4.57"/><line x1="216.4" y1="420" x2="230" y2="420"/><line x1="270" y1="420" x2="283.6" y2="420"/><rect x="229" y="432.67" width="42" height="13.06" rx="4.57"/><line x1="214.72" y1="439.2" x2="229" y2="439.2"/><line x1="271" y1="439.2" x2="285.28" y2="439.2"/><rect x="228" y="451.87" width="44" height="13.06" rx="4.57"/><line x1="213.04" y1="458.4" x2="228" y2="458.4"/><line x1="272" y1="458.4" x2="286.96" y2="458.4"/>
    <path d="M 228 468 L 272 468 L 263 524 L 237 524 Z"/>
    <path d="M 234 206 Q 208 213.5 219.76 236"/>
    <path d="M 266 206 Q 292 213.5 280.24 236"/>
    <path d="M 234 221.5 Q 182.01 230.38 201.04 257"/>
    <path d="M 266 221.5 Q 317.99 230.38 298.96 257"/>
    <path d="M 234 237 Q 159.15 247.25 184.59 278"/>
    <path d="M 266 237 Q 340.85 247.25 315.41 278"/>
    <path d="M 234 252.5 Q 142.18 264.13 172.37 299"/>
    <path d="M 266 252.5 Q 357.82 264.13 327.63 299"/>
    <path d="M 234 268 Q 133.15 281 165.87 320"/>
    <path d="M 266 268 Q 366.85 281 334.13 320"/>
    <path d="M 234 283.5 Q 133.15 297.88 165.87 341"/>
    <path d="M 266 283.5 Q 366.85 297.88 334.13 341"/>
    <path d="M 234 299 Q 142.18 314.75 172.37 362"/>
    <path d="M 266 299 Q 357.82 314.75 327.63 362"/>
    <path d="M 234 314.5 Q 159.15 331.63 184.59 383"/>
    <path d="M 266 314.5 Q 340.85 331.63 315.41 383"/>
    <path d="M 234 330 Q 182.01 348.5 201.04 404"/>
    <path d="M 266 330 Q 317.99 348.5 298.96 404"/>
    <path d="M 234 345.5 Q 208 365.38 219.76 425"/>
    <path d="M 266 345.5 Q 292 365.38 280.24 425"/>
    <rect x="241" y="228" width="18" height="96" rx="6"/>
    <path d="M 238 206 Q 190 196 154 214"/>
    <path d="M 180 220 Q 146 250 168 284"/>
    <path d="M 262 206 Q 310 196 346 214"/>
    <path d="M 320 220 Q 354 250 332 284"/>
    <path d="M 230 470 Q 158 480 170 540 Q 184 578 220 566 L 234 524 Z"/>
    <circle cx="190 " cy="552" r="15"/>
    <path d="M 270 470 Q 342 480 330 540 Q 316 578 280 566 L 266 524 Z"/>
    <circle cx="310 " cy="552" r="15"/>
    <circle cx="152" cy="218" r="14"/>
    <path d="M 142.18 230.1 Q 133.13 292.67 117.2 353.91 A 11 11 0 0 1 138.8 358.09 Q 146.87 295.33 161.82 233.9 A 10 10 0 0 1 142.18 230.1 Z"/>
    <circle cx="128" cy="362" r="10"/>
    <path d="M 119.09 370.87 Q 113.07 420.19 102.1 468.71 A 8 8 0 0 1 117.9 471.29 Q 122.93 421.81 132.91 373.13 A 7 7 0 0 1 119.09 370.87 Z"/>
    <path d="M 108.08 371.03 Q 102.05 420.36 91.09 468.87 A 7 7 0 0 1 104.91 471.13 Q 109.95 421.64 119.92 372.97 A 6 6 0 0 1 108.08 371.03 Z"/>
    <rect x="89" y="476" width="26" height="15" rx="6"/>
    <line x1="91" y1="492" x2="86" y2="506"/>
    <line x1="96.5" y1="492" x2="94" y2="513"/>
    <line x1="102" y1="492" x2="102" y2="520"/>
    <line x1="107.5" y1="492" x2="110" y2="513"/>
    <line x1="113" y1="492" x2="118" y2="506"/>
    <circle cx="348" cy="218" r="14"/>
    <path d="M 338.18 233.9 Q 353.13 295.33 361.2 358.09 A 11 11 0 0 1 382.8 353.91 Q 366.87 292.67 357.82 230.1 A 10 10 0 0 1 338.18 233.9 Z"/>
    <circle cx="372" cy="362" r="10"/>
    <path d="M 367.09 373.13 Q 377.07 421.81 382.1 471.29 A 8 8 0 0 1 397.9 468.71 Q 386.93 420.19 380.91 370.87 A 7 7 0 0 1 367.09 373.13 Z"/>
    <path d="M 380.08 372.97 Q 390.05 421.64 395.09 471.13 A 7 7 0 0 1 408.91 468.87 Q 397.95 420.36 391.92 371.03 A 6 6 0 0 1 380.08 372.97 Z"/>
    <rect x="385" y="476" width="26" height="15" rx="6"/>
    <line x1="387" y1="492" x2="382" y2="506"/>
    <line x1="392.5" y1="492" x2="390" y2="513"/>
    <line x1="398" y1="492" x2="398" y2="520"/>
    <line x1="403.5" y1="492" x2="406" y2="513"/>
    <line x1="409" y1="492" x2="414" y2="506"/>
    <path d="M 177.01 566.49 Q 184.01 646.34 181.01 726.56 A 15 15 0 0 1 210.99 725.44 Q 201.99 645.66 202.99 565.51 A 13 13 0 0 1 177.01 566.49 Z"/>
    <circle cx="196" cy="736" r="12"/>
    <ellipse cx="196" cy="730" rx="9" ry="11"/>
    <path d="M 189 750.17 Q 194 815.11 192 880.15 A 10 10 0 0 1 212 879.85 Q 208 814.89 211 749.83 A 11 11 0 0 1 189 750.17 Z"/>
    <path d="M 181 752.16 Q 184 814.13 184 876.19 A 6 6 0 0 1 196 875.81 Q 192 813.87 191 751.84 A 5 5 0 0 1 181 752.16 Z"/>
    <circle cx="200" cy="888" r="9"/>
    <path d="M 210 896 Q 206 918 164 920 L 162 930 Q 210 932 216 906 Z"/>
    <path d="M 297.01 565.51 Q 298.01 645.66 289.01 725.44 A 15 15 0 0 1 318.99 726.56 Q 315.99 646.34 322.99 566.49 A 13 13 0 0 1 297.01 565.51 Z"/>
    <circle cx="304" cy="736" r="12"/>
    <ellipse cx="304" cy="730" rx="9" ry="11"/>
    <path d="M 289 749.83 Q 292 814.89 288 879.85 A 10 10 0 0 1 308 880.15 Q 306 815.11 311 750.17 A 11 11 0 0 1 289 749.83 Z"/>
    <path d="M 309 751.84 Q 308 813.87 304 875.81 A 6 6 0 0 1 316 876.19 Q 316 814.13 319 752.16 A 5 5 0 0 1 309 751.84 Z"/>
    <circle cx="300" cy="888" r="9"/>
    <path d="M 290 896 Q 294 918 336 920 L 338 930 Q 290 932 284 906 Z"/>
  </g>
  <g class="plate-keys">
    <g class="mk" id="mk-1" data-region="neck">
      <polyline class="mk-lead" points="45,160 61,160 236,160"/>
      <circle class="mk-dot" cx="236" cy="160" r="3"/>
      <circle class="mk-ring" cx="34" cy="160" r="11"/>
      <text class="mk-num" x="34" y="164">1</text>
    </g>
    <g class="mk" id="mk-2" data-region="jaw">
      <polyline class="mk-lead" points="455,106 439,106 276,106"/>
      <circle class="mk-dot" cx="276" cy="106" r="3"/>
      <circle class="mk-ring" cx="466" cy="106" r="11"/>
      <text class="mk-num" x="466" y="110">2</text>
    </g>
    <g class="mk" id="mk-3" data-region="cervical-headaches">
      <polyline class="mk-lead" points="45,56 61,56 226,56"/>
      <circle class="mk-dot" cx="226" cy="56" r="3"/>
      <circle class="mk-ring" cx="34" cy="56" r="11"/>
      <text class="mk-num" x="34" y="60">3</text>
    </g>
    <g class="mk" id="mk-4" data-region="shoulder">
      <polyline class="mk-lead" points="455,212 439,212 348,218"/>
      <circle class="mk-dot" cx="348" cy="218" r="3"/>
      <circle class="mk-ring" cx="466" cy="212" r="11"/>
      <text class="mk-num" x="466" y="216">4</text>
    </g>
    <g class="mk" id="mk-5" data-region="elbow">
      <polyline class="mk-lead" points="455,352 439,352 372,362"/>
      <circle class="mk-dot" cx="372" cy="362" r="3"/>
      <circle class="mk-ring" cx="466" cy="352" r="11"/>
      <text class="mk-num" x="466" y="356">5</text>
    </g>
    <g class="mk" id="mk-6" data-region="wrist-hand">
      <polyline class="mk-lead" points="455,462 439,462 398,484"/>
      <circle class="mk-dot" cx="398" cy="484" r="3"/>
      <circle class="mk-ring" cx="466" cy="462" r="11"/>
      <text class="mk-num" x="466" y="466">6</text>
    </g>
    <g class="mk" id="mk-7" data-region="thoracic-spine">
      <polyline class="mk-lead" points="45,286 61,286 236,286"/>
      <circle class="mk-dot" cx="236" cy="286" r="3"/>
      <circle class="mk-ring" cx="34" cy="286" r="11"/>
      <text class="mk-num" x="34" y="290">7</text>
    </g>
    <g class="mk" id="mk-8" data-region="ribs">
      <polyline class="mk-lead" points="45,344 61,344 192,310"/>
      <circle class="mk-dot" cx="192" cy="310" r="3"/>
      <circle class="mk-ring" cx="34" cy="344" r="11"/>
      <text class="mk-num" x="34" y="348">8</text>
    </g>
    <g class="mk" id="mk-9" data-region="lower-back">
      <polyline class="mk-lead" points="45,420 61,420 236,420"/>
      <circle class="mk-dot" cx="236" cy="420" r="3"/>
      <circle class="mk-ring" cx="34" cy="420" r="11"/>
      <text class="mk-num" x="34" y="424">9</text>
    </g>
    <g class="mk" id="mk-10" data-region="pelvis">
      <polyline class="mk-lead" points="455,540 439,540 308,508"/>
      <circle class="mk-dot" cx="308" cy="508" r="3"/>
      <circle class="mk-ring" cx="466" cy="540" r="11"/>
      <text class="mk-num" x="466" y="544">10</text>
    </g>
    <g class="mk" id="mk-11" data-region="hip">
      <polyline class="mk-lead" points="45,552 61,552 190,552"/>
      <circle class="mk-dot" cx="190" cy="552" r="3"/>
      <circle class="mk-ring" cx="34" cy="552" r="11"/>
      <text class="mk-num" x="34" y="556">11</text>
    </g>
    <g class="mk" id="mk-12" data-region="hamstring">
      <polyline class="mk-lead" points="45,650 61,650 198,650"/>
      <circle class="mk-dot" cx="198" cy="650" r="3"/>
      <circle class="mk-ring" cx="34" cy="650" r="11"/>
      <text class="mk-num" x="34" y="654">12</text>
    </g>
    <g class="mk" id="mk-13" data-region="knee">
      <polyline class="mk-lead" points="455,736 439,736 306,736"/>
      <circle class="mk-dot" cx="306" cy="736" r="3"/>
      <circle class="mk-ring" cx="466" cy="736" r="11"/>
      <text class="mk-num" x="466" y="740">13</text>
    </g>
    <g class="mk" id="mk-14" data-region="shin">
      <polyline class="mk-lead" points="45,812 61,812 198,812"/>
      <circle class="mk-dot" cx="198" cy="812" r="3"/>
      <circle class="mk-ring" cx="34" cy="812" r="11"/>
      <text class="mk-num" x="34" y="816">14</text>
    </g>
    <g class="mk" id="mk-15" data-region="foot-ankle">
      <polyline class="mk-lead" points="455,898 439,898 312,898"/>
      <circle class="mk-dot" cx="312" cy="898" r="3"/>
      <circle class="mk-ring" cx="466" cy="898" r="11"/>
      <text class="mk-num" x="466" y="902">15</text>
    </g>
  </g>
</svg>